# xmcd
#
# Track frame offsets: 
#        150
#        13852
#        33460
#        46810
#        64900
#        75682
#        88147
#        98752
#        109877
#        127762
#        139107
#        156777
#        167440
#
# Disc length: 2533 seconds
#
# Revision: 0
# Processed by: cddbd v1.5.1PL0 Copyright (c) Steve Scherf et al.
# Submitted via: ExactAudioCopy v0.95a5
#
DISCID=a009e30d
DTITLE=White Sands Panhandle Band - In Times Like These
DYEAR=1999
DGENRE=Bluegrass
TTITLE0=Take Your Shoes Off Moses
TTITLE1=In Times Like These
TTITLE2=Joshua
TTITLE3=Beulah Land
TTITLE4=Cryin' Holy
TTITLE5=Preachin' Up A Storm
TTITLE6=It's A Beautiful Life
TTITLE7=Swing Down Chariots
TTITLE8=Three Men On A Mountain
TTITLE9=If God Be For Us
TTITLE10=Drifting To Far From The Shore
TTITLE11=Where The Soul Never Dies
TTITLE12=Come On Home
EXTD=
EXTT0=
EXTT1=
EXTT2=
EXTT3=
EXTT4=
EXTT5=
EXTT6=
EXTT7=
EXTT8=
EXTT9=
EXTT10=
EXTT11=
EXTT12=
PLAYORDER=
